<svg xmlns="http://www.w3.org/2000/svg" width="32" height="32" viewBox="0 0 32 32">
  <g fill="#07C" fill-rule="evenodd">
    <path d="M12,0 L23,0 L32,9 L32,20 C32,22.209139 30.209139,24 28,24 L12,24 C9.790861,24 8,22.209139 8,20 L8,4 C8,1.790861 9.790861,0 12,0 Z M12.5033113,3.00397353 C10.8471885,3.00397353 11.0039735,2.84718853 11.0039735,4.50331128 L11.0039735,19.4966887 C11.0039735,21.1528115 10.8471885,20.9960265 12.5033113,20.9960265 L27.4966887,20.9960265 C29.1528115,20.9960265 28.9960265,21.1528115 28.9960265,19.4966887 L28.9960265,10.5 L26,10.5 C23.5147186,10.5 21.5,8.48528137 21.5,6 L21.5,3 L12.5033113,3.00397353 Z"/>
    <path d="M6,8 L4,8 C1.790861,8 0,9.790861 0,12 L0,28 C0,30.209139 1.790861,32 4,32 L20,32 C22.209139,32 24,30.209139 24,28 L24,21.5 L24,26 L20.9960265,26 L20.9960265,27.4966887 C20.9960265,29.1528115 21.1528115,28.9960265 19.4966887,28.9960265 L4.50331128,28.9960265 C2.84718853,28.9960265 3.00397353,29.1528115 3.00397353,27.4966887 L3.00397353,12.5033113 C3.00397353,10.8471885 2.84718853,11.0039735 4.50331128,11.0039735 L6,11.0033125 L6,8 Z"/>
  </g>
</svg>
